<svg xmlns="http://www.w3.org/2000/svg" viewBox="0 0 200 140" width="200" height="140">
  <rect width="200" height="140" fill="#f8f6f0"/>
  <g stroke="#1a1210" fill="none" stroke-linecap="round" stroke-linejoin="round">
    <!-- Hooded figure -->
    <path d="M100 18 Q80 20 76 36 Q72 52 78 64 Q84 72 100 74 Q116 72 122 64 Q128 52 124 36 Q120 20 100 18" stroke-width="1.6"/>
    <!-- Hood shadow lines -->
    <path d="M82 34 Q88 28 100 26 Q112 28 118 34" stroke-width="1" opacity="0.4"/>
    <path d="M80 42 L86 36 M120 42 L114 36" stroke-width="0.9" opacity="0.35"/>
    <!-- Cloak body -->
    <path d="M76 64 Q60 72 52 96 L52 114 L148 114 L148 96 Q140 72 124 64" stroke-width="1.6"/>
    <path d="M52 114 L148 114" stroke-width="1.6"/>
    <!-- Cloak folds -->
    <path d="M76 64 Q80 80 78 100 Q76 110 74 114" stroke-width="1" opacity="0.4"/>
    <path d="M124 64 Q120 80 122 100 Q124 110 126 114" stroke-width="1" opacity="0.4"/>
    <path d="M100 74 Q98 90 96 114" stroke-width="1" opacity="0.3"/>
    <path d="M100 74 Q102 90 104 114" stroke-width="1" opacity="0.3"/>
    <!-- Chest/contraband box peek -->
    <path d="M82 100 L82 114 L118 114 L118 100 L82 100" stroke-width="1.4"/>
    <path d="M82 106 L118 106" stroke-width="1" opacity="0.5"/>
    <path d="M100 100 L100 114" stroke-width="1" opacity="0.5"/>
    <!-- Lock on chest -->
    <rect x="95" y="102" width="10" height="8" rx="1" stroke-width="1.2"/>
    <path d="M97 102 Q97 98 100 98 Q103 98 103 102" stroke-width="1.2"/>
    <!-- Eye glinting under hood -->
    <path d="M93 52 Q100 48 107 52 Q100 58 93 52" stroke-width="1.3"/>
    <circle cx="100" cy="53" r="2" stroke-width="1"/>
  </g>
</svg>
