<svg xmlns="http://www.w3.org/2000/svg" viewBox="0 0 200 140" width="200" height="140">
  <rect width="200" height="140" fill="#f8f6f0"/>
  <g stroke="#1a1210" fill="none" stroke-linecap="round" stroke-linejoin="round">
    <path d="M30 110 L30 75 L170 75 L170 110 L30 110" stroke-width="1.8"/>
    <path d="M30 75 L30 55 L44 55 L44 75" stroke-width="1.8"/>
    <path d="M30 55 L30 44 L36 44 L36 55" stroke-width="1.5"/>
    <path d="M38 55 L38 44 L44 44 L44 55" stroke-width="1.5"/>
    <path d="M156 75 L156 55 L170 55 L170 75" stroke-width="1.8"/>
    <path d="M156 55 L156 44 L162 44 L162 55" stroke-width="1.5"/>
    <path d="M164 55 L164 44 L170 44 L170 55" stroke-width="1.5"/>
    <path d="M56 75 L56 62 L68 62 L68 75" stroke-width="1.4"/>
    <path d="M80 75 L80 62 L92 62 L92 75" stroke-width="1.4"/>
    <path d="M108 75 L108 62 L120 62 L120 75" stroke-width="1.4"/>
    <path d="M132 75 L132 62 L144 62 L144 75" stroke-width="1.4"/>
    <path d="M84 110 L84 90 Q100 80 116 90 L116 110" stroke-width="1.8"/>
    <path d="M86 95 L114 95" stroke-width="1" opacity="0.4"/>
    <path d="M86 101 L114 101" stroke-width="1" opacity="0.4"/>
    <path d="M86 107 L114 107" stroke-width="1" opacity="0.4"/>
    <path d="M44 82 L84 82 M116 82 L156 82" stroke-width="0.8" opacity="0.3"/>
    <path d="M44 91 L84 91 M116 91 L156 91" stroke-width="0.8" opacity="0.3"/>
    <path d="M44 100 L84 100 M116 100 L156 100" stroke-width="0.8" opacity="0.3"/>
    <path d="M58 75 L58 82" stroke-width="0.8" opacity="0.3"/>
    <path d="M74 75 L74 82" stroke-width="0.8" opacity="0.3"/>
    <path d="M134 75 L134 82" stroke-width="0.8" opacity="0.3"/>
    <path d="M150 75 L150 82" stroke-width="0.8" opacity="0.3"/>
    <path d="M52 82 L52 91" stroke-width="0.8" opacity="0.3"/>
    <path d="M66 82 L66 91" stroke-width="0.8" opacity="0.3"/>
    <path d="M138 82 L138 91" stroke-width="0.8" opacity="0.3"/>
    <path d="M154 82 L154 91" stroke-width="0.8" opacity="0.3"/>
  </g>
</svg>
