<svg xmlns="http://www.w3.org/2000/svg" viewBox="0 0 200 140" width="200" height="140">
  <rect width="200" height="140" fill="#f8f6f0"/>
  <g stroke="#1a1210" fill="none" stroke-linecap="round" stroke-linejoin="round">
    <path d="M52 28 L148 112" stroke-width="2"/>
    <path d="M52 28 L56 24 L62 34" stroke-width="1.5"/>
    <path d="M148 112 L150 118 L144 116" stroke-width="1.5"/>
    <path d="M94 65 L86 57 M94 65 L102 73" stroke-width="2.2"/>
    <path d="M108 76 L116 84" stroke-width="1.2" opacity="0.45"/>
    <path d="M114 80 L122 88" stroke-width="1.2" opacity="0.45"/>
    <path d="M120 84 L128 92" stroke-width="1.2" opacity="0.45"/>
    <path d="M148 28 L52 112" stroke-width="2"/>
    <path d="M148 28 L144 24 L138 34" stroke-width="1.5"/>
    <path d="M52 112 L50 118 L56 116" stroke-width="1.5"/>
    <path d="M106 65 L114 57 M106 65 L98 73" stroke-width="2.2"/>
    <path d="M92 76 L84 84" stroke-width="1.2" opacity="0.45"/>
    <path d="M86 80 L78 88" stroke-width="1.2" opacity="0.45"/>
    <path d="M80 84 L72 92" stroke-width="1.2" opacity="0.45"/>
    <path d="M100 66 L100 58 M100 66 L108 62 M100 66 L106 72 M100 66 L92 72 M100 66 L94 62" stroke-width="1" opacity="0.7"/>
    <path d="M70 44 L66 48" stroke-width="1.2" opacity="0.55"/>
    <path d="M130 44 L134 48" stroke-width="1.2" opacity="0.55"/>
  </g>
</svg>
