<svg xmlns="http://www.w3.org/2000/svg" viewBox="0 0 200 140" width="200" height="140">
  <rect width="200" height="140" fill="#f8f6f0"/>
  <g stroke="#1a1210" fill="none" stroke-linecap="round" stroke-linejoin="round">
    <!-- Bookshelf -->
    <path d="M28 20 L28 112 L172 112 L172 20" stroke-width="1.6"/>
    <path d="M28 20 L172 20" stroke-width="1.6"/>
    <!-- Shelf boards -->
    <path d="M28 56 L172 56" stroke-width="1.4"/>
    <path d="M28 92 L172 92" stroke-width="1.4"/>
    <!-- Books row 1 (top shelf, 20-56) -->
    <path d="M38 22 L38 54" stroke-width="3.5" stroke-linecap="butt"/>
    <path d="M44 22 L44 54" stroke-width="5" stroke-linecap="butt" opacity="0.5"/>
    <path d="M52 22 L52 54" stroke-width="4" stroke-linecap="butt"/>
    <path d="M58 22 L58 54" stroke-width="3" stroke-linecap="butt" opacity="0.6"/>
    <path d="M63 22 L63 54" stroke-width="4.5" stroke-linecap="butt"/>
    <path d="M70 22 L70 54" stroke-width="3" stroke-linecap="butt" opacity="0.5"/>
    <path d="M75 22 L75 54" stroke-width="5.5" stroke-linecap="butt"/>
    <path d="M84 22 L84 54" stroke-width="3.5" stroke-linecap="butt" opacity="0.6"/>
    <path d="M90 22 L90 54" stroke-width="4" stroke-linecap="butt"/>
    <path d="M97 22 L97 54" stroke-width="5" stroke-linecap="butt" opacity="0.45"/>
    <path d="M105 22 L105 54" stroke-width="3.5" stroke-linecap="butt"/>
    <path d="M111 22 L111 54" stroke-width="4.5" stroke-linecap="butt"/>
    <path d="M118 22 L118 54" stroke-width="3" stroke-linecap="butt" opacity="0.55"/>
    <path d="M123 22 L123 54" stroke-width="5" stroke-linecap="butt"/>
    <path d="M131 22 L131 54" stroke-width="4" stroke-linecap="butt" opacity="0.6"/>
    <path d="M138 22 L138 54" stroke-width="3.5" stroke-linecap="butt"/>
    <path d="M144 22 L144 54" stroke-width="5.5" stroke-linecap="butt" opacity="0.45"/>
    <path d="M153 22 L153 54" stroke-width="3" stroke-linecap="butt"/>
    <path d="M158 22 L158 54" stroke-width="4.5" stroke-linecap="butt"/>
    <path d="M165 22 L165 54" stroke-width="3.5" stroke-linecap="butt" opacity="0.55"/>
    <!-- Books row 2 (mid shelf 56-92) -->
    <path d="M36 58 L36 90" stroke-width="4.5" stroke-linecap="butt" opacity="0.55"/>
    <path d="M43 58 L43 90" stroke-width="3.5" stroke-linecap="butt"/>
    <path d="M49 58 L49 90" stroke-width="5" stroke-linecap="butt"/>
    <path d="M57 58 L57 90" stroke-width="4" stroke-linecap="butt" opacity="0.5"/>
    <path d="M64 58 L64 90" stroke-width="3" stroke-linecap="butt"/>
    <path d="M69 58 L69 90" stroke-width="5.5" stroke-linecap="butt" opacity="0.45"/>
    <path d="M78 58 L78 90" stroke-width="4" stroke-linecap="butt"/>
    <path d="M85 58 L85 90" stroke-width="3.5" stroke-linecap="butt"/>
    <path d="M91 58 L91 90" stroke-width="5" stroke-linecap="butt" opacity="0.6"/>
    <path d="M99 58 L99 90" stroke-width="3" stroke-linecap="butt"/>
    <path d="M104 58 L104 90" stroke-width="4.5" stroke-linecap="butt"/>
    <path d="M112 58 L112 90" stroke-width="3.5" stroke-linecap="butt" opacity="0.5"/>
    <path d="M119 58 L119 90" stroke-width="5" stroke-linecap="butt"/>
    <path d="M127 58 L127 90" stroke-width="4" stroke-linecap="butt"/>
    <path d="M134 58 L134 90" stroke-width="3" stroke-linecap="butt" opacity="0.55"/>
    <path d="M139 58 L139 90" stroke-width="5.5" stroke-linecap="butt"/>
    <path d="M148 58 L148 90" stroke-width="3.5" stroke-linecap="butt" opacity="0.45"/>
    <path d="M155 58 L155 90" stroke-width="4" stroke-linecap="butt"/>
    <path d="M162 58 L162 90" stroke-width="5" stroke-linecap="butt" opacity="0.6"/>
    <!-- Open book on desk (bottom) -->
    <path d="M58 94 Q58 110 100 112 Q142 110 142 94 L100 92 Z" stroke-width="1.5"/>
    <path d="M100 92 L100 112" stroke-width="1.3"/>
    <!-- Text lines on open book -->
    <path d="M66 98 L96 97 M66 102 L96 101 M66 106 L86 105" stroke-width="0.9" opacity="0.45"/>
    <path d="M104 97 L134 98 M104 101 L134 102 M114 105 L134 106" stroke-width="0.9" opacity="0.45"/>
    <!-- Magnifying glass leaning on book -->
    <circle cx="152" cy="104" r="10" stroke-width="1.4"/>
    <path d="M159 111 L168 122" stroke-width="2" stroke-linecap="round"/>
  </g>
</svg>
