<svg xmlns="http://www.w3.org/2000/svg" viewBox="0 0 200 140" width="200" height="140">
  <rect width="200" height="140" fill="#f8f6f0"/>
  <g stroke="#1a1210" fill="none" stroke-linecap="round" stroke-linejoin="round">
    <path d="M100 28 Q72 28 66 53 Q62 70 68 82 Q72 90 80 92 L80 106 L120 106 L120 92 Q128 90 132 82 Q138 70 134 53 Q128 28 100 28 Z" stroke-width="1.8"/>
    <ellipse cx="87" cy="63" rx="9" ry="10" stroke-width="1.5"/>
    <ellipse cx="113" cy="63" rx="9" ry="10" stroke-width="1.5"/>
    <path d="M83 63 Q87 59 91 63" stroke-width="1" opacity="0.5"/>
    <path d="M109 63 Q113 59 117 63" stroke-width="1" opacity="0.5"/>
    <path d="M96 74 Q100 78 104 74" stroke-width="1.2"/>
    <path d="M80 106 L80 98 M87 106 L87 98 M94 106 L94 98 M100 106 L100 98 M106 106 L106 98 M113 106 L113 98 M120 106 L120 98" stroke-width="1.2"/>
    <path d="M80 98 L120 98" stroke-width="1.5"/>
    <path d="M72 40 L60 20 L76 32 L84 16 L100 26 L116 16 L124 32 L140 20 L128 40" stroke-width="1.6"/>
    <circle cx="76" cy="32" r="2.5" stroke-width="1.2"/>
    <circle cx="100" cy="26" r="2.5" stroke-width="1.2"/>
    <circle cx="124" cy="32" r="2.5" stroke-width="1.2"/>
    <path d="M80 42 L76 48" stroke-width="0.8" opacity="0.3"/>
    <path d="M86 39 L82 45" stroke-width="0.8" opacity="0.3"/>
    <path d="M92 37 L88 43" stroke-width="0.8" opacity="0.3"/>
    <path d="M100 35 L96 41" stroke-width="0.8" opacity="0.3"/>
    <path d="M108 37 L104 43" stroke-width="0.8" opacity="0.3"/>
    <path d="M114 39 L110 45" stroke-width="0.8" opacity="0.3"/>
    <path d="M120 42 L116 48" stroke-width="0.8" opacity="0.3"/>
  </g>
</svg>
