<svg xmlns="http://www.w3.org/2000/svg" viewBox="0 0 200 140" width="200" height="140">
  <rect width="200" height="140" fill="#f8f6f0"/>
  <g stroke="#1a1210" fill="none" stroke-linecap="round" stroke-linejoin="round">
    <!-- Laurel wreath left -->
    <path d="M52 70 Q44 60 48 50 Q52 42 60 44 Q56 52 58 60 Z" stroke-width="1.4"/>
    <path d="M56 80 Q46 72 48 62 Q50 54 58 56 Q54 64 58 72 Z" stroke-width="1.4"/>
    <path d="M62 90 Q50 84 50 74 Q52 66 60 68 Q56 76 62 82 Z" stroke-width="1.4"/>
    <path d="M70 98 Q58 94 56 84 Q58 76 66 78 Q62 86 68 92 Z" stroke-width="1.4"/>
    <path d="M80 104 Q68 102 64 92 Q66 84 74 86 Q70 94 78 98 Z" stroke-width="1.4"/>
    <!-- Laurel wreath right (mirror) -->
    <path d="M148 70 Q156 60 152 50 Q148 42 140 44 Q144 52 142 60 Z" stroke-width="1.4"/>
    <path d="M144 80 Q154 72 152 62 Q150 54 142 56 Q146 64 142 72 Z" stroke-width="1.4"/>
    <path d="M138 90 Q150 84 150 74 Q148 66 140 68 Q144 76 138 82 Z" stroke-width="1.4"/>
    <path d="M130 98 Q142 94 144 84 Q142 76 134 78 Q138 86 132 92 Z" stroke-width="1.4"/>
    <path d="M120 104 Q132 102 136 92 Q134 84 126 86 Q130 94 122 98 Z" stroke-width="1.4"/>
    <!-- Wreath bow bottom -->
    <path d="M88 108 Q100 116 112 108" stroke-width="1.5"/>
    <path d="M92 110 Q100 106 108 110" stroke-width="1.2" opacity="0.5"/>
    <!-- Star in centre -->
    <path d="M100 30 L104 44 L118 44 L107 53 L111 67 L100 58 L89 67 L93 53 L82 44 L96 44 Z" stroke-width="1.6"/>
    <!-- Star glow lines -->
    <path d="M100 24 L100 18" stroke-width="1" opacity="0.5"/>
    <path d="M114 28 L120 24" stroke-width="1" opacity="0.5"/>
    <path d="M86 28 L80 24" stroke-width="1" opacity="0.5"/>
    <path d="M122 40 L128 36" stroke-width="1" opacity="0.5"/>
    <path d="M78 40 L72 36" stroke-width="1" opacity="0.5"/>
  </g>
</svg>
